inDegrees=no
num_controls=7
num_derivatives=13
num_iterations=92
num_multipliers=7
num_parameters=0
num_slacks=7
num_states=26
objective=0.513186
objective_accelerations=0.044465
objective_balance=0.002297
objective_effort=0.048500
objective_height=0.406521
objective_ligament=0.011404
solver_duration=1236.777700
status=Solve_Succeeded
success=true
DataType=double
version=3
OpenSimVersion=4.5
endheader
time	/jointset/ground_pelvis/pelvis_tilt/value	/jointset/ground_pelvis/pelvis_tx/value	/jointset/ground_pelvis/pelvis_ty/value	/jointset/hip_l/hip_flexion_l/value	/jointset/hip_l/hip_adduction_l/value	/jointset/hip_l/hip_rotation_l/value	/jointset/back/lumbar_extension/value	/jointset/patellofemoral_l/patellar_flexion_l/value	/jointset/knee_l/knee_flexion_l/value	/jointset/knee_l/knee_adduction_l/value	/jointset/knee_l/knee_rotation_l/value	/jointset/ankle_l/ankle_angle_l/value	/jointset/subtalar_l/subtalar_angle_l/value	/jointset/ground_pelvis/pelvis_tilt/speed	/jointset/ground_pelvis/pelvis_tx/speed	/jointset/ground_pelvis/pelvis_ty/speed	/jointset/hip_l/hip_flexion_l/speed	/jointset/hip_l/hip_adduction_l/speed	/jointset/hip_l/hip_rotation_l/speed	/jointset/back/lumbar_extension/speed	/jointset/patellofemoral_l/patellar_flexion_l/speed	/jointset/knee_l/knee_flexion_l/speed	/jointset/knee_l/knee_adduction_l/speed	/jointset/knee_l/knee_rotation_l/speed	/jointset/ankle_l/ankle_angle_l/speed	/jointset/subtalar_l/subtalar_angle_l/speed	/forceset/tau_hip_flexion_l	/forceset/tau_hip_adduction_l	/forceset/tau_hip_rotation_l	/forceset/tau_knee_flexion_l	/forceset/tau_ankle_angle_l	/forceset/tau_subtalar_angle_l	/forceset/tau_lumbar_extension	lambda_cid13_p0	lambda_cid13_p1	lambda_cid13_p2	lambda_cid13_p3	lambda_cid13_p4	lambda_cid13_p5	lambda_cid14_p0	/jointset/ground_pelvis/pelvis_tilt/accel	/jointset/ground_pelvis/pelvis_tx/accel	/jointset/ground_pelvis/pelvis_ty/accel	/jointset/hip_l/hip_flexion_l/accel	/jointset/hip_l/hip_adduction_l/accel	/jointset/hip_l/hip_rotation_l/accel	/jointset/back/lumbar_extension/accel	/jointset/patellofemoral_l/patellar_flexion_l/accel	/jointset/knee_l/knee_flexion_l/accel	/jointset/knee_l/knee_adduction_l/accel	/jointset/knee_l/knee_rotation_l/accel	/jointset/ankle_l/ankle_angle_l/accel	/jointset/subtalar_l/subtalar_angle_l/accel	gamma_cid13_p0	gamma_cid13_p1	gamma_cid13_p2	gamma_cid13_p3	gamma_cid13_p4	gamma_cid13_p5	gamma_cid14_p0
1.5	-0.03841297679202686	-0.03776369351877333	0.853591819774198	0.71710453553125	-0.3141832694271737	-0.1592838802449093	-0.8009890558037723	0.7028931710648105	0.7028931710648219	-0.09900339684350325	-0.1745260181292612	0.07676715480057066	0.00596120959714261	0.4465932892299081	0.2894673736348155	0.4077449676087866	-2.075156594349439	0.08996873088423388	-0.5767734106538739	0.8330159130571038	-1.79539672793336	-1.795396727933457	-0.1369061224277336	0.0006183910732380717	-0.2651641585607397	0.01257509527279728	-0.2289405746455507	0.0370437401788525	-0.004989705148557521	-0.1982424615543801	0.1096947465803762	0.02844187176329602	0.298320427503353	-7.959000877532784	-12.51387781460172	3.317086695180258	-10.90311072660512	-673.5555831557646	-61.08865554623024	-17.90145098201852	0.0897359424881355	0.7646787625010011	-0.5435927519525026	-0.9288693237036793	0.2978887504383926	-0.1553055228607797	2.098554540135113	-0.8762556713373001	-0.8762556713373011	-0.5474187992005488	0.05095478998971915	-0.05668489529754115	0.2868860680249119	2.306186574861773e-07	7.233023300873188e-07	-9.284756513209613e-07	-1.852934960433575e-08	3.326978402993378e-07	1.976101205262355e-07	2.17131543571413e-07
1.51	-0.03394291680949041	-0.03483100708756959	0.857641283131899	0.6963085726255287	-0.3132691463562073	-0.1650609662789573	-0.7925552857178652	0.6848976885352481	0.68489768853525	-0.1003993782300184	-0.1745193127734304	0.07411314967058258	0.00610096540661866	0.4473598385490675	0.2970433797829864	0.402065446675655	-2.083769956830889	0.09287348956282301	-0.5786322723755956	0.8536288956486826	-1.803443267167535	-1.803443267167536	-0.142209589622669	0.0007182953525884327	-0.2655620803277499	0.01541890387044434	-0.220831877046031	0.03606445501300775	-0.004796265990230452	-0.1952772058145602	0.1090559487460349	0.02766806247920356	0.2908022128193526	-7.91858564876356	-12.26250792633881	3.365671185472164	-10.72355612326828	-668.9876092840177	-61.1895273055162	-18.5038617416631	0.06127978570729158	0.7501163149483179	-0.5924320773823784	-0.7876698530837902	0.2892227039117161	-0.1993080258817043	2.026288847250074	-0.730407668654384	-0.730407668639888	-0.5094886994013078	-0.01116910032537831	-0.02008765042095699	0.2893380403501231	1.142813075048914e-07	1.122530408351305e-06	-2.863110599012842e-07	1.082014151633653e-07	2.394246510159273e-07	1.978092603166811e-07	1.769200601333509e-07
1.52	-0.02946695826195475	-0.03182334964008932	0.861631491217591	0.6754344560664363	-0.3123254850430013	-0.1708562672360424	-0.7839186620603265	0.6668294296894991	0.6668294296895051	-0.101845929892404	-0.1745117438442488	0.07145741695631833	0.00627040125901385	0.4477730022313433	0.3044615768901229	0.3958939132070123	-2.090787325021045	0.095876379335151	-0.5804163952594817	0.8735866273834947	-1.809951991169579	-1.809951991169483	-0.1470201776080732	0.0007911057426165377	-0.2655096754154895	0.01851110385670876	-0.2127231794465663	0.03508516984707735	-0.004602826831761714	-0.1923119500747679	0.1084171509116647	0.02689425319500719	0.2832839981353326	-7.882382699230255	-12.01144008681626	3.415491131259378	-10.5591222347417	-664.4973195405992	-61.31795461097546	-19.08852979475446	0.01905881511141715	0.7331169542941138	-0.6419952590547081	-0.6096704654450592	0.3175149691861391	-0.140357755293739	1.967504368781789	-0.5686926249110222	-0.5686926249110182	-0.4488429572943269	0.0455360121252862	0.03338044055656676	0.3365643457483926	4.586062486500509e-08	1.371980523246299e-06	8.808045368100949e-08	1.821449426951694e-07	1.895720212121295e-07	2.006650748261028e-07	1.545687576165547e-07
1.53	-0.02498875217153879	-0.02874242597570923	0.8655575773843803	0.654498365278204	-0.3113512134015216	-0.1766696601164453	-0.7750860139884093	0.6487037781620727	0.6487037781620942	-0.1033376622896085	-0.174504072638493	0.06880437464676167	0.006472079005379173	0.4477989143188227	0.3116832463727281	0.3892463030393565	-2.096141057477432	0.09899821140796386	-0.5822711830991311	0.8928034086976439	-1.814918806636381	-1.814918806636291	-0.1512277472916525	0.0007169140223500117	-0.2650331812054704	0.02186701576916497	-0.2042859587630564	0.03392884113463658	-0.004480321369925506	-0.1895852626462288	0.107862194108414	0.02602919098005064	0.2754203655485896	-7.829577445628276	-11.72075780353257	3.455694330067079	-10.27031113022108	-660.0251671457767	-61.41990486112103	-19.65156772029596	-0.01604921598662777	0.7107474157120106	-0.687659689695324	-0.454770982596342	0.3123171128519733	-0.2092623212615723	1.877828267309649	-0.4217797331190383	-0.4217797331199089	-0.3916534947191818	-0.03782031127963079	0.06466843297177502	0.3412245343213417	2.835140127535512e-08	1.462291552061741e-06	1.779630720610864e-07	2.000020306638339e-07	1.858537358554195e-07	2.063436062244364e-07	1.511938973286031e-07
1.54	-0.020512368284562	-0.02559047452240931	0.8694148842906783	0.6335174278960289	-0.3103451634820159	-0.1825018454798432	-0.7660653854524352	0.6305362377348664	0.6305362377349061	-0.1048684582878078	-0.1744979280593666	0.06615807418365348	0.006708539854934207	0.4474085615441987	0.3186671346740899	0.382138061108781	-2.099756643808242	0.1022320349417221	-0.5841748918572269	0.9111827201949205	-1.818329771125346	-1.818329771125262	-0.1548328978084192	0.0004857804150030406	-0.264161306125564	0.02546772449470329	-0.1958487380795825	0.03277251242214538	-0.004357815908073754	-0.1868585752177051	0.1073072373051456	0.02516412876503258	0.2675567329618326	-7.781372196959737	-11.42948707795883	3.49605126954688	-9.990693207894861	-655.6343424656656	-61.54371075772335	-20.18946830511198	-0.0641941573092495	0.6855607180454697	-0.734121611638614	-0.2620412403295936	0.3399132613752165	-0.1501419389830506	1.800010405407269	-0.2575224293434372	-0.2575224293434381	-0.3283591239318142	0.01414763470923657	0.1124566145340672	0.385523708364832	1.216937001968217e-08	1.528351309018418e-06	2.483586000404143e-07	2.128269737045638e-07	1.814772638172924e-07	2.0813429850653e-07	1.471326079606603e-07
1.55	-0.01604184892947607	-0.02236992835375249	0.8731988522873824	0.6125090277219731	-0.3093064202865972	-0.1883526740835222	-0.7568653328173056	0.6123426569727444	0.6123426569727476	-0.1064329645364795	-0.1744946617448489	0.06352257855630969	0.00698203986344197	0.4466386000993439	0.3253963177525752	0.3745831657752826	-2.101633403490686	0.1055058536346598	-0.5859169537298003	0.9286684396211833	-1.820096313196312	-1.82009631319624	-0.1580534102604383	0.0001748141943062966	-0.2628628390392093	0.02924351043868227	-0.1874509079606167	0.0314859276650362	-0.004287138452912205	-0.1840842638648982	0.1066582281081401	0.02428291142276682	0.2596987913632404	-7.770401721113552	-11.12388965041825	3.533220833429681	-9.667420163255334	-651.3365083255492	-61.64290708899613	-20.6986736241937	-0.09192092191056796	0.6597746587364257	-0.7769946647326859	-0.1070143373543843	0.3192369365810028	-0.1750429091889471	1.698947629679258	-0.09273779770482493	-0.09273779770675469	-0.3163597272414446	-0.05259465710202907	0.1498319948071676	0.3750022675975515	-2.483504851191265e-09	1.566469383181302e-06	2.963016108188804e-07	2.198540106326738e-07	1.763424462549239e-07	2.05445523980782e-07	1.42280432913597e-07
